<svg xmlns="http://www.w3.org/2000/svg" xmlns:xlink="http://www.w3.org/1999/xlink" version="1.1" width="500pt" height="500pt" viewBox="0 0 500 500">
<defs>
<clipPath id="clip_0">
<path transform="matrix(1,0,0,-1,0,500)" d="M0 500H500V0H0Z"/>
</clipPath>
</defs>
<g id="layer_1" data-name="Layer 1">
<g clip-path="url(#clip_0)">
<path transform="matrix(1,0,0,-1,414.6279,325.83399)" d="M0 0C4.452 2.56 6.683 6.401 6.703 11.522L6.941 88.717C6.951 93.862 9.182 97.703 13.634 100.263L55.479 124.305C57.539 125.482 59.759 126.072 62.14 126.072 64.521 126.072 66.741 125.458 68.8 124.279 70.86 123.076 72.481 121.464 73.672 119.389 74.862 117.341 75.451 115.114 75.451 112.732V-27.627C75.451-32.773 73.222-36.639 68.761-39.198L-89.152-129.913C-93.563-132.449-97.982-132.449-102.404-129.913L-226.332-59.043C-230.812-56.482-233.053-52.616-233.053-47.444V23.324C-233.053 23.401-232.963 23.452-232.883 23.401-232.812 23.375-232.723 23.401-232.723 23.503V23.581C-232.723 23.632-232.692 23.685-232.643 23.709L-130.579 82.367C-130.489 82.418-130.527 82.571-130.627 82.571-130.699 82.571-130.737 82.598-130.737 82.673L-130.538 152.059C-130.518 157.206-132.729 161.072-137.189 163.659-141.629 166.219-146.09 166.244-150.541 163.659L-226.402 119.952C-230.832 117.392-235.273 117.392-239.714 119.952L-315.804 163.762C-317.865 164.963-320.085 165.552-322.465 165.552-324.856 165.552-327.076 164.939-329.137 163.762-331.197 162.557-332.817 160.945-334.007 158.87-335.197 156.823-335.797 154.595-335.797 152.213V26.807C-335.797 24.425-336.388 22.223-337.578 20.149-338.758 18.075-340.378 16.463-342.438 15.26-344.499 14.082-346.709 13.467-349.089 13.467-351.47 13.467-353.69 14.03-355.75 15.209L-397.986 39.352C-402.467 41.938-404.717 45.805-404.707 50.976L-404.327 270.168C-404.327 272.55-403.727 274.752-402.537 276.826-401.347 278.875-399.716 280.488-397.666 281.691-395.606 282.87-393.386 283.483-391.005 283.483-388.635 283.483-386.415 282.895-384.354 281.717L-239.694 198.607C-235.273 196.072-230.842 196.072-226.412 198.607L-81.801 281.717C-79.729 282.895-77.51 283.483-75.129 283.483-72.75 283.483-70.53 282.87-68.47 281.665-66.408 280.488-64.787 278.848-63.6 276.801-62.409 274.727-61.817 272.5-61.817 270.119V50.874C-61.817 45.728-64.048 41.888-68.5 39.301L-144.241-4.328C-148.7-6.888-150.921-10.755-150.911-15.901-150.901-21.046-148.66-24.914-144.18-27.447L-102.404-51.233C-97.982-53.768-93.574-53.742-89.162-51.233ZM8.762 196.661C8.771 191.489 11.022 187.623 15.534 185.062 20.043 182.527 24.516 182.579 28.966 185.241L68.971 209.233C73.29 211.844 75.451 215.633 75.451 220.679V269.606C75.441 274.803 73.19 278.644 68.682 281.204 64.181 283.764 59.7 283.689 55.258 281.026L15.242 257.034C10.933 254.423 8.771 250.633 8.762 245.591V196.661" fill="#007fff" fill-rule="evenodd"/>
</g>
</g>
</svg>
