<svg xmlns="http://www.w3.org/2000/svg" xmlns:xlink="http://www.w3.org/1999/xlink" version="1.1" width="1000" height="1000" viewBox="0 0 1000 1000" xml:space="preserve">
<desc>Created with Fabric.js 3.5.0</desc>
<defs>
</defs>
<rect x="0" y="0" width="100%" height="100%" fill="rgba(255,255,255,0)"/>
<g transform="matrix(1.0759 0 0 1.0759 500.0204 500.0125)" id="541578">
<g style="" vector-effect="non-scaling-stroke">
		<g transform="matrix(1.7756 0 0 1.7756 -4.9233 166.2753)">
<path style="stroke: none; stroke-width: 1; stroke-dasharray: none; stroke-linecap: butt; stroke-dashoffset: 0; stroke-linejoin: miter; stroke-miterlimit: 4; is-custom-font: none; font-file-url: none; fill: rgb(83,158,67); fill-rule: nonzero; opacity: 1;" transform=" translate(-253.1106, -250.1923)" d="M 253.110609 313.094357 C 251.376975 313.094357 249.758916 312.632054 248.256433 311.823025 L 232.884876 302.692551 C 230.573363 301.421219 231.72912 300.958916 232.422573 300.727765 C 235.543115 299.687585 236.120993 299.456433 239.357111 297.607223 C 239.703837 297.376072 240.16614 297.491648 240.512867 297.722799 L 252.30158 304.772912 C 252.763883 305.004063 253.341761 305.004063 253.688488 304.772912 L 299.80316 278.074944 C 300.265463 277.843792 300.496614 277.38149 300.496614 276.803612 L 300.496614 223.523251 C 300.496614 222.945372 300.265463 222.48307 299.80316 222.251919 L 253.688488 195.669526 C 253.226185 195.438375 252.648307 195.438375 252.30158 195.669526 L 206.186907 222.251919 C 205.724605 222.48307 205.493454 223.060948 205.493454 223.523251 L 205.493454 276.803612 C 205.493454 277.265914 205.724605 277.843792 206.186907 278.074944 L 218.78465 285.356208 C 225.603612 288.823476 229.87991 284.77833 229.87991 280.733183 L 229.87991 228.146275 C 229.87991 227.452822 230.457788 226.759368 231.266817 226.759368 L 237.161174 226.759368 C 237.854628 226.759368 238.548081 227.337246 238.548081 228.146275 L 238.548081 280.733183 C 238.548081 289.863657 233.57833 295.180135 224.910158 295.180135 C 222.251919 295.180135 220.171558 295.180135 214.277201 292.290745 L 202.141761 285.356208 C 199.136795 283.622573 197.287585 280.386456 197.287585 276.919187 L 197.287585 223.638826 C 197.287585 220.171558 199.136795 216.93544 202.141761 215.201806 L 248.256433 188.503837 C 251.145824 186.885779 255.075395 186.885779 257.964786 188.503837 L 304.079458 215.201806 C 307.084424 216.93544 308.933634 220.171558 308.933634 223.638826 L 308.933634 276.919187 C 308.933634 280.386456 307.084424 283.622573 304.079458 285.356208 L 257.964786 312.054176 C 256.462302 312.74763 254.728668 313.094357 253.110609 313.094357 Z M 267.326411 276.456885 C 247.100677 276.456885 242.939955 267.210835 242.939955 259.351693 C 242.939955 258.658239 243.517833 257.964786 244.326862 257.964786 L 250.336795 257.964786 C 251.030248 257.964786 251.608126 258.427088 251.608126 259.120542 C 252.532731 265.24605 255.190971 268.251016 267.441986 268.251016 C 277.150339 268.251016 281.311061 266.055079 281.311061 260.854176 C 281.311061 257.84921 280.155305 255.653273 265.014898 254.15079 C 252.417156 252.879458 244.558014 250.105643 244.558014 240.050564 C 244.558014 230.688939 252.417156 225.141309 265.592777 225.141309 C 280.386456 225.141309 287.66772 230.226637 288.592325 241.321896 C 288.592325 241.668623 288.476749 242.01535 288.245598 242.362077 C 288.014447 242.593228 287.66772 242.824379 287.320993 242.824379 L 281.311061 242.824379 C 280.733183 242.824379 280.155305 242.362077 280.039729 241.784199 C 278.652822 235.42754 275.069977 233.347178 265.592777 233.347178 C 254.959819 233.347178 253.688488 237.045598 253.688488 239.819413 C 253.688488 243.171106 255.190971 244.211287 269.522348 246.060497 C 283.738149 247.909707 290.441535 250.567946 290.441535 260.507449 C 290.325959 270.678104 282.004515 276.456885 267.326411 276.456885 Z" stroke-linecap="round"/>
</g>
		<g transform="matrix(1.7756 0 0 1.7756 -356.3496 -52.353)">
<path style="stroke: none; stroke-width: 1; stroke-dasharray: none; stroke-linecap: butt; stroke-dashoffset: 0; stroke-linejoin: miter; stroke-miterlimit: 4; is-custom-font: none; font-file-url: none; fill: rgb(51,51,51); fill-rule: nonzero; opacity: 1;" transform=" translate(-55.1874, -127.0609)" d="M 110.027991 104.711512 C 110.027991 102.631151 108.872235 100.666366 107.023025 99.6261851 L 58.0189616 71.4257336 C 57.2099323 70.9634312 56.2853273 70.7322799 55.3607223 70.6167043 L 54.8984199 70.6167043 C 53.9738149 70.6167043 53.0492099 70.9634312 52.2401806 71.4257336 L 3.23611738 99.6261851 C 1.38690745 100.666366 0.231151242 102.631151 0.231151242 104.711512 L 0.346726862 180.52912 C 0.346726862 181.5693 0.924604966 182.609481 1.84920993 183.071783 C 2.7738149 183.649661 3.92957111 183.649661 4.73860045 183.071783 L 33.8636569 166.428894 C 35.7128668 165.388713 36.868623 163.423928 36.868623 161.343567 L 36.868623 125.861851 C 36.868623 123.78149 38.0243792 121.816704 39.8735892 120.776524 L 52.2401806 113.610835 C 53.1647856 113.032957 54.2049661 112.801806 55.2451467 112.801806 C 56.2853273 112.801806 57.3255079 113.032957 58.1345372 113.610835 L 70.5011287 120.776524 C 72.3503386 121.816704 73.5060948 123.78149 73.5060948 125.861851 L 73.5060948 161.343567 C 73.5060948 163.423928 74.661851 165.388713 76.5110609 166.428894 L 105.636117 183.071783 C 106.560722 183.649661 107.716479 183.649661 108.641084 183.071783 C 109.565688 182.609481 110.143567 181.5693 110.143567 180.52912 L 110.027991 104.711512 L 110.027991 104.711512 Z" stroke-linecap="round"/>
</g>
		<g transform="matrix(1.7756 0 0 1.7756 118.9223 -103.1418)">
<path style="stroke: none; stroke-width: 1; stroke-dasharray: none; stroke-linecap: butt; stroke-dashoffset: 0; stroke-linejoin: miter; stroke-miterlimit: 4; is-custom-font: none; font-file-url: none; fill: rgb(51,51,51); fill-rule: nonzero; opacity: 1;" transform=" translate(-322.8605, -98.456)" d="M 345.571106 0.346726862 C 344.646501 -0.115575621 343.490745 -0.115575621 342.681716 0.346726862 C 341.757111 0.924604966 341.179233 1.84920993 341.179233 2.88939052 L 341.179233 78.013544 C 341.179233 78.7069977 340.832506 79.4004515 340.139052 79.862754 C 339.445598 80.2094808 338.752144 80.2094808 338.058691 79.862754 L 325.807675 72.8126411 C 323.958465 71.7724605 321.762528 71.7724605 319.913318 72.8126411 L 270.909255 101.128668 C 269.060045 102.168849 267.904289 104.133634 267.904289 106.213995 L 267.904289 162.730474 C 267.904289 164.810835 269.060045 166.775621 270.909255 167.815801 L 319.913318 196.131828 C 321.762528 197.172009 323.958465 197.172009 325.807675 196.131828 L 374.811738 167.815801 C 376.660948 166.775621 377.816704 164.810835 377.816704 162.730474 L 377.816704 21.8437923 C 377.816704 19.6478555 376.660948 17.68307 374.811738 16.6428894 L 345.571106 0.346726862 L 345.571106 0.346726862 Z M 341.063657 144.122799 C 341.063657 144.700677 340.832506 145.16298 340.370203 145.394131 L 323.611738 155.102483 C 323.149436 155.333634 322.571558 155.333634 322.109255 155.102483 L 305.35079 145.394131 C 304.888488 145.16298 304.657336 144.585102 304.657336 144.122799 L 304.657336 124.706095 C 304.657336 124.128217 304.888488 123.665914 305.35079 123.434763 L 322.109255 113.726411 C 322.571558 113.49526 323.149436 113.49526 323.611738 113.726411 L 340.370203 123.434763 C 340.832506 123.665914 341.063657 124.243792 341.063657 124.706095 L 341.063657 144.122799 L 341.063657 144.122799 Z" stroke-linecap="round"/>
</g>
		<g transform="matrix(1.7756 0 0 1.7756 356.7635 -40.9379)">
<path style="stroke: none; stroke-width: 1; stroke-dasharray: none; stroke-linecap: butt; stroke-dashoffset: 0; stroke-linejoin: miter; stroke-miterlimit: 4; is-custom-font: none; font-file-url: none; fill: rgb(51,51,51); fill-rule: nonzero; opacity: 1;" transform=" translate(-55.7652, -62.9887)" d="M 107.600903 53.7426637 C 109.450113 52.7024831 110.490293 50.7376975 110.490293 48.6573363 L 110.490293 34.9038375 C 110.490293 32.8234763 109.334537 30.8586907 107.600903 29.8185102 L 58.9435666 1.61805869 C 57.0943567 0.577878104 54.8984199 0.577878104 53.0492099 1.61805869 L 4.04514673 29.9340858 C 2.19593679 30.9742664 1.04018059 32.9390519 1.04018059 35.0194131 L 1.04018059 91.5358916 C 1.04018059 93.6162528 2.19593679 95.5810384 4.04514673 96.621219 L 52.7024831 124.359368 C 54.551693 125.399549 56.7476298 125.399549 58.4812641 124.359368 L 87.9530474 107.94763 C 88.8776524 107.485327 89.4555305 106.445147 89.4555305 105.404966 C 89.4555305 104.364786 88.8776524 103.324605 87.9530474 102.862302 L 38.717833 74.5462754 C 37.793228 73.9683973 37.2153499 73.0437923 37.2153499 72.0036117 L 37.2153499 54.3205418 C 37.2153499 53.2803612 37.793228 52.2401806 38.717833 51.7778781 L 54.0893905 42.9941309 C 55.0139955 42.4162528 56.1697517 42.4162528 57.0943567 42.9941309 L 72.4659142 51.7778781 C 73.3905192 52.3557562 73.9683973 53.2803612 73.9683973 54.3205418 L 73.9683973 68.1896163 C 73.9683973 69.2297968 74.5462754 70.2699774 75.4708804 70.7322799 C 76.3954853 71.310158 77.5512415 71.310158 78.4758465 70.7322799 L 107.600903 53.7426637 L 107.600903 53.7426637 Z" stroke-linecap="round"/>
</g>
		<g transform="matrix(1.7756 0 0 1.7756 356.8647 -40.9395)">
<path style="stroke: none; stroke-width: 1; stroke-dasharray: none; stroke-linecap: butt; stroke-dashoffset: 0; stroke-linejoin: miter; stroke-miterlimit: 4; is-custom-font: none; font-file-url: none; fill: rgb(83,158,67); fill-rule: nonzero; opacity: 1;" transform=" translate(-55.823, -62.9887)" d="M 55.2451467 51.0844244 C 55.5918736 50.8532731 56.0541761 50.8532731 56.4009029 51.0844244 L 65.7625282 56.5164786 C 66.1092551 56.7476298 66.3404063 57.0943567 66.3404063 57.5566591 L 66.3404063 68.4207675 C 66.3404063 68.88307 66.1092551 69.2297968 65.7625282 69.4609481 L 56.4009029 74.8930023 C 56.0541761 75.1241535 55.5918736 75.1241535 55.2451467 74.8930023 L 45.8835214 69.4609481 C 45.5367946 69.2297968 45.3056433 68.88307 45.3056433 68.4207675 L 45.3056433 57.5566591 C 45.3056433 57.0943567 45.5367946 56.7476298 45.8835214 56.5164786 L 55.2451467 51.0844244 L 55.2451467 51.0844244 Z" stroke-linecap="round"/>
</g>
		<g transform="matrix(1.7756 0 0 1.7756 -118.7136 -40.6301)">
<linearGradient id="SVGID_72" gradientUnits="objectBoundingBox" gradientTransform="matrix(1 0 0 1 54.9562 63.1621)" x1="0.6818844110000001" y1="0.174868311" x2="0.278226935" y2="0.897551419">
<stop offset="0%" style="stop-color:rgb(65,135,63);stop-opacity: 1"/>
<stop offset="32.88%" style="stop-color:rgb(65,139,61);stop-opacity: 1"/>
<stop offset="63.519999999999996%" style="stop-color:rgb(65,150,55);stop-opacity: 1"/>
<stop offset="93.19%" style="stop-color:rgb(63,169,45);stop-opacity: 1"/>
<stop offset="100%" style="stop-color:rgb(63,174,42);stop-opacity: 1"/>
</linearGradient>
<path style="stroke: none; stroke-width: 1; stroke-dasharray: none; stroke-linecap: butt; stroke-dashoffset: 0; stroke-linejoin: miter; stroke-miterlimit: 4; is-custom-font: none; font-file-url: none; fill: url(#SVGID_72); fill-rule: nonzero; opacity: 1;" transform=" translate(-54.9562, -63.1621)" d="M 57.903386 1.84920993 C 56.0541761 0.809029345 53.8582393 0.809029345 52.0090293 1.84920993 L 3.351693 29.9340858 C 1.50248307 30.9742664 0.462302483 32.9390519 0.462302483 35.0194131 L 0.462302483 91.3047404 C 0.462302483 93.3851016 1.61805869 95.3498871 3.351693 96.3900677 L 52.0090293 124.474944 C 53.8582393 125.515124 56.0541761 125.515124 57.903386 124.474944 L 106.560722 96.3900677 C 108.409932 95.3498871 109.450113 93.3851016 109.450113 91.3047404 L 109.450113 35.0194131 C 109.450113 32.9390519 108.294357 30.9742664 106.560722 29.9340858 L 57.903386 1.84920993 L 57.903386 1.84920993 Z" stroke-linecap="round"/>
</g>
		<g transform="matrix(1.7756 0 0 1.7756 -166.3237 -67.5041)">
<path style="stroke: none; stroke-width: 1; stroke-dasharray: none; stroke-linecap: butt; stroke-dashoffset: 0; stroke-linejoin: miter; stroke-miterlimit: 4; is-custom-font: none; font-file-url: none; fill: none; fill-rule: nonzero; opacity: 1;" transform=" translate(-28.1427, -48.0269)" d="M 51.8934537 1.84920993 L 3.12054176 29.9340858 C 1.27133183 30.9742664 0 32.9390519 0 35.0194131 L 0 91.3047404 C 0 92.6916479 0.577878104 93.9629797 1.50248307 95.0031603 L 56.2853273 1.15575621 C 54.8984199 0.924604966 53.2803612 1.04018059 51.8934537 1.84920993 L 51.8934537 1.84920993 Z" stroke-linecap="round"/>
</g>
		<g transform="matrix(1.7756 0 0 1.7756 -68.5401 -14.2608)">
<path style="stroke: none; stroke-width: 1; stroke-dasharray: none; stroke-linecap: butt; stroke-dashoffset: 0; stroke-linejoin: miter; stroke-miterlimit: 4; is-custom-font: none; font-file-url: none; fill: none; fill-rule: nonzero; opacity: 1;" transform=" translate(-83.2144, -78.0135)" d="M 56.6320542 125.052822 C 57.0943567 124.937246 57.5566591 124.706095 58.0189616 124.474944 L 106.791874 96.3900677 C 108.641084 95.3498871 109.79684 93.3851016 109.79684 91.3047404 L 109.79684 35.0194131 C 109.79684 33.51693 109.103386 32.014447 108.063205 30.9742664 L 56.6320542 125.052822 L 56.6320542 125.052822 Z" stroke-linecap="round"/>
</g>
		<g transform="matrix(1.7756 0 0 1.7756 -119.1241 -40.3183)">
<linearGradient id="SVGID_73" gradientUnits="objectBoundingBox" gradientTransform="matrix(1 0 0 1 54.7251 63.3377)" x1="0.43276547200000004" y1="0.55168777" x2="1.59245277" y2="-0.183061379">
<stop offset="13.76%" style="stop-color:rgb(65,135,63);stop-opacity: 1"/>
<stop offset="40.32%" style="stop-color:rgb(84,160,68);stop-opacity: 1"/>
<stop offset="71.36%" style="stop-color:rgb(102,184,72);stop-opacity: 1"/>
<stop offset="90.81%" style="stop-color:rgb(108,192,74);stop-opacity: 1"/>
</linearGradient>
<path style="stroke: none; stroke-width: 1; stroke-dasharray: none; stroke-linecap: butt; stroke-dashoffset: 0; stroke-linejoin: miter; stroke-miterlimit: 4; is-custom-font: none; font-file-url: none; fill: url(#SVGID_73); fill-rule: nonzero; opacity: 1;" transform=" translate(-54.7251, -63.3377)" d="M 106.676298 29.9340858 L 57.7878104 1.84920993 C 57.3255079 1.61805869 56.7476298 1.38690745 56.2853273 1.27133183 L 1.50248307 95.1187359 C 1.96478555 95.696614 2.54266366 96.1589165 3.12054176 96.5056433 L 52.0090293 124.590519 C 53.3959368 125.399549 55.0139955 125.6307 56.5164786 125.168397 L 107.94763 31.089842 C 107.600903 30.6275395 107.1386 30.2808126 106.676298 29.9340858 L 106.676298 29.9340858 Z" stroke-linecap="round"/>
</g>
		<g transform="matrix(1.7756 0 0 1.7756 -69.1557 -69.5655)">
<path style="stroke: none; stroke-width: 1; stroke-dasharray: none; stroke-linecap: butt; stroke-dashoffset: 0; stroke-linejoin: miter; stroke-miterlimit: 4; is-custom-font: none; font-file-url: none; fill: none; fill-rule: nonzero; opacity: 1;" transform=" translate(-82.8677, -56.112)" d="M 109.79684 100.55079 L 109.79684 44.2654628 C 109.79684 42.1851016 108.525508 40.220316 106.676298 39.1801354 L 57.7878104 11.0952596 C 57.2099323 10.7485327 56.6320542 10.5173815 55.9386005 10.4018059 L 109.450113 101.822122 C 109.681264 101.475395 109.79684 101.013093 109.79684 100.55079 L 109.79684 100.55079 Z" stroke-linecap="round"/>
</g>
		<g transform="matrix(1.7756 0 0 1.7756 -166.7341 -15.1072)">
<path style="stroke: none; stroke-width: 1; stroke-dasharray: none; stroke-linecap: butt; stroke-dashoffset: 0; stroke-linejoin: miter; stroke-miterlimit: 4; is-custom-font: none; font-file-url: none; fill: none; fill-rule: nonzero; opacity: 1;" transform=" translate(-27.9115, -86.7828)" d="M 3.12054176 39.1801354 C 1.27133183 40.220316 0 42.1851016 0 44.2654628 L 0 100.55079 C 0 102.631151 1.38690745 104.595937 3.12054176 105.636117 L 52.0090293 133.720993 C 53.1647856 134.414447 54.4361174 134.645598 55.8230248 134.414447 L 3.46726862 39.0645598 L 3.12054176 39.1801354 L 3.12054176 39.1801354 Z" stroke-linecap="round"/>
</g>
		<g transform="matrix(1.7756 0 0 1.7756 -127.2316 -167.4533)">
<linearGradient id="SVGID_74" gradientUnits="objectBoundingBox" gradientTransform="matrix(1 0 0 1 50.1598 0.9824)" x1="-44.1377" y1="0.1343" x2="53.279300000000006" y2="0.1343">
<stop offset="9.191646%" style="stop-color:rgb(108,192,74);stop-opacity: 1"/>
<stop offset="28.64%" style="stop-color:rgb(102,184,72);stop-opacity: 1"/>
<stop offset="59.68%" style="stop-color:rgb(84,160,68);stop-opacity: 1"/>
<stop offset="86.24%" style="stop-color:rgb(65,135,63);stop-opacity: 1"/>
</linearGradient>
<path style="stroke: none; stroke-width: 1; stroke-dasharray: none; stroke-linecap: butt; stroke-dashoffset: 0; stroke-linejoin: miter; stroke-miterlimit: 4; is-custom-font: none; font-file-url: none; fill: url(#SVGID_74); fill-rule: evenodd; opacity: 1;" transform=" translate(-50.1598, -0.9824)" d="M 50.3909707 0.809029345 L 49.6975169 1.15575621 L 50.6221219 1.15575621 L 50.3909707 0.809029345 Z" stroke-linecap="round"/>
</g>
		<g transform="matrix(1.7756 0 0 1.7756 -115.9433 -40.6208)">
<linearGradient id="SVGID_75" gradientUnits="objectBoundingBox" gradientTransform="matrix(1 0 0 1 56.5165 72.4133)" x1="-0.0438880435" y1="0.49997206499999997" x2="1.01499239" y2="0.49997206499999997">
<stop offset="9.191646%" style="stop-color:rgb(108,192,74);stop-opacity: 1"/>
<stop offset="28.64%" style="stop-color:rgb(102,184,72);stop-opacity: 1"/>
<stop offset="59.68%" style="stop-color:rgb(84,160,68);stop-opacity: 1"/>
<stop offset="86.24%" style="stop-color:rgb(65,135,63);stop-opacity: 1"/>
</linearGradient>
<path style="stroke: none; stroke-width: 1; stroke-dasharray: none; stroke-linecap: butt; stroke-dashoffset: 0; stroke-linejoin: miter; stroke-miterlimit: 4; is-custom-font: none; font-file-url: none; fill: url(#SVGID_75); fill-rule: evenodd; opacity: 1;" transform=" translate(-56.5165, -72.4133)" d="M 106.791874 105.636117 C 108.178781 104.827088 109.218962 103.440181 109.681264 101.937698 L 56.0541761 10.4018059 C 54.6672686 10.1706546 53.1647856 10.2862302 51.8934537 11.0952596 L 3.351693 39.0645598 L 55.7074492 134.530023 C 56.4009029 134.414447 57.2099323 134.183296 57.903386 133.836569 L 106.791874 105.636117 L 106.791874 105.636117 Z" stroke-linecap="round"/>
</g>
		<g transform="matrix(1.7756 0 0 1.7756 -18.9821 16.4171)">
<linearGradient id="SVGID_76" gradientUnits="objectBoundingBox" gradientTransform="matrix(1 0 0 1 111.126 104.5381)" x1="-97.13770000000001" y1="0.36210000000000003" x2="0.2793" y2="0.36210000000000003">
<stop offset="9.191646%" style="stop-color:rgb(108,192,74);stop-opacity: 1"/>
<stop offset="28.64%" style="stop-color:rgb(102,184,72);stop-opacity: 1"/>
<stop offset="59.68%" style="stop-color:rgb(84,160,68);stop-opacity: 1"/>
<stop offset="86.24%" style="stop-color:rgb(65,135,63);stop-opacity: 1"/>
</linearGradient>
<path style="stroke: none; stroke-width: 1; stroke-dasharray: none; stroke-linecap: butt; stroke-dashoffset: 0; stroke-linejoin: miter; stroke-miterlimit: 4; is-custom-font: none; font-file-url: none; fill: url(#SVGID_76); fill-rule: evenodd; opacity: 1;" transform=" translate(-111.126, -104.5381)" d="M 111.299323 104.711512 L 110.952596 104.133634 L 110.952596 104.942664 L 111.299323 104.711512 Z" stroke-linecap="round"/>
</g>
		<g transform="matrix(1.7756 0 0 1.7756 -68.3349 42.0691)">
<linearGradient id="SVGID_77" gradientUnits="objectBoundingBox" gradientTransform="matrix(1 0 0 1 83.33 118.9851)" x1="-1.03860714" y1="0.502754209" x2="1.0079684899999999" y2="0.502754209">
<stop offset="9.191646%" style="stop-color:rgb(108,192,74);stop-opacity: 1"/>
<stop offset="28.64%" style="stop-color:rgb(102,184,72);stop-opacity: 1"/>
<stop offset="59.68%" style="stop-color:rgb(84,160,68);stop-opacity: 1"/>
<stop offset="86.24%" style="stop-color:rgb(65,135,63);stop-opacity: 1"/>
</linearGradient>
<path style="stroke: none; stroke-width: 1; stroke-dasharray: none; stroke-linecap: butt; stroke-dashoffset: 0; stroke-linejoin: miter; stroke-miterlimit: 4; is-custom-font: none; font-file-url: none; fill: url(#SVGID_77); fill-rule: evenodd; opacity: 1;" transform=" translate(-83.33, -118.9851)" d="M 106.791874 105.636117 L 58.0189616 133.720993 C 57.3255079 134.06772 56.6320542 134.298871 55.8230248 134.414447 L 56.7476298 136.148081 L 110.83702 104.827088 L 110.83702 104.133634 L 109.450113 101.822122 C 109.218962 103.440181 108.178781 104.827088 106.791874 105.636117 L 106.791874 105.636117 Z" stroke-linecap="round"/>
</g>
		<g transform="matrix(1.7756 0 0 1.7756 -68.3349 42.0691)">
<linearGradient id="SVGID_78" gradientUnits="objectBoundingBox" gradientTransform="matrix(1 0 0 1 83.33 118.9851)" x1="1.30613025" y1="-2.1106936" x2="0.0439327731" y2="2.01605387">
<stop offset="0%" style="stop-color:rgb(65,135,63);stop-opacity: 1"/>
<stop offset="32.88%" style="stop-color:rgb(65,139,61);stop-opacity: 1"/>
<stop offset="63.519999999999996%" style="stop-color:rgb(65,150,55);stop-opacity: 1"/>
<stop offset="93.19%" style="stop-color:rgb(63,169,45);stop-opacity: 1"/>
<stop offset="100%" style="stop-color:rgb(63,174,42);stop-opacity: 1"/>
</linearGradient>
<path style="stroke: none; stroke-width: 1; stroke-dasharray: none; stroke-linecap: butt; stroke-dashoffset: 0; stroke-linejoin: miter; stroke-miterlimit: 4; is-custom-font: none; font-file-url: none; fill: url(#SVGID_78); fill-rule: evenodd; opacity: 1;" transform=" translate(-83.33, -118.9851)" d="M 106.791874 105.636117 L 58.0189616 133.720993 C 57.3255079 134.06772 56.6320542 134.298871 55.8230248 134.414447 L 56.7476298 136.148081 L 110.83702 104.827088 L 110.83702 104.133634 L 109.450113 101.822122 C 109.218962 103.440181 108.178781 104.827088 106.791874 105.636117 L 106.791874 105.636117 Z" stroke-linecap="round"/>
</g>
</g>
</g>
</svg>